<?xml version="1.0" encoding="UTF-8" standalone="no"?>
<!-- Created with Inkscape (http://www.inkscape.org/) -->

<svg
   xmlns:osb="http://www.openswatchbook.org/uri/2009/osb"
   xmlns:dc="http://purl.org/dc/elements/1.1/"
   xmlns:cc="http://creativecommons.org/ns#"
   xmlns:rdf="http://www.w3.org/1999/02/22-rdf-syntax-ns#"
   xmlns:svg="http://www.w3.org/2000/svg"
   xmlns="http://www.w3.org/2000/svg"
   xmlns:sodipodi="http://sodipodi.sourceforge.net/DTD/sodipodi-0.dtd"
   xmlns:inkscape="http://www.inkscape.org/namespaces/inkscape"
   width="210mm"
   height="297mm"
   viewBox="0 0 210 297"
   version="1.1"
   id="svg8"
   inkscape:version="0.92.2 (5c3e80d, 2017-08-06)"
   sodipodi:docname="model_helikoptera.svg">
  <defs
     id="defs2">
    <linearGradient
       inkscape:collect="always"
       id="linearGradient4514"
       osb:paint="gradient">
      <stop
         style="stop-color:#000000;stop-opacity:1;"
         offset="0"
         id="stop4510" />
      <stop
         style="stop-color:#000000;stop-opacity:0;"
         offset="1"
         id="stop4512" />
    </linearGradient>
  </defs>
  <sodipodi:namedview
     id="base"
     pagecolor="#ffffff"
     bordercolor="#666666"
     borderopacity="1.0"
     inkscape:pageopacity="0.0"
     inkscape:pageshadow="2"
     inkscape:zoom="1"
     inkscape:cx="372.72147"
     inkscape:cy="913.88233"
     inkscape:document-units="mm"
     inkscape:current-layer="layer1"
     showgrid="false"
     inkscape:window-width="1920"
     inkscape:window-height="1013"
     inkscape:window-x="-9"
     inkscape:window-y="277"
     inkscape:window-maximized="1" />
  <metadata
     id="metadata5">
    <rdf:RDF>
      <cc:Work
         rdf:about="">
        <dc:format>image/svg+xml</dc:format>
        <dc:type
           rdf:resource="http://purl.org/dc/dcmitype/StillImage" />
        <dc:title></dc:title>
      </cc:Work>
    </rdf:RDF>
  </metadata>
  <g
     inkscape:label="Layer 1"
     inkscape:groupmode="layer"
     id="layer1">
    <rect
       id="rect14"
       width="98.958061"
       height="4.8809505"
       x="50.520969"
       y="121.82048"
       style="fill:#000000;fill-opacity:0;stroke:#000000;stroke-width:1.04193842;stroke-miterlimit:4;stroke-dasharray:none;stroke-opacity:1" />
    <rect
       style="fill:#000000;fill-opacity:0;stroke:#000000;stroke-width:0.95388252;stroke-miterlimit:4;stroke-dasharray:none;stroke-opacity:1"
       id="rect4524"
       width="9.0461168"
       height="80.466957"
       x="95.476936"
       y="41.349941" />
    <rect
       style="fill:#000000;fill-opacity:0;stroke:#000000;stroke-width:1;stroke-miterlimit:4;stroke-dasharray:none;stroke-opacity:1"
       id="rect4526"
       width="2.9104166"
       height="7.9375"
       x="98.689583"
       y="33.276558" />
    <rect
       style="fill:#000000;fill-opacity:0;stroke:#000000;stroke-width:0.88734847;stroke-miterlimit:4;stroke-dasharray:none;stroke-opacity:1"
       id="rect4530"
       width="110.62298"
       height="1.8520833"
       x="45.526897"
       y="35.514977" />
    <path
       style="fill:#000000;fill-opacity:0;stroke:#000000;stroke-width:0.94488192;stroke-miterlimit:4;stroke-dasharray:none;stroke-opacity:1"
       d="m 375.10013,137.72136 v -1.625 h 3.5 3.5 v 1.625 1.625 h -3.5 -3.5 z"
       id="path4604"
       inkscape:connector-curvature="0"
       transform="scale(0.26458333)" />
    <path
       style="fill:#000000;fill-opacity:0;stroke:#000000;stroke-width:0.94488192;stroke-miterlimit:4;stroke-dasharray:none;stroke-opacity:1"
       d="m 375.60013,137.72136 v -1.125 h 3 3 v 1.125 1.125 h -3 -3 z"
       id="path4606"
       inkscape:connector-curvature="0"
       transform="scale(0.26458333)" />
    <path
       style="fill:#000000;fill-opacity:0;stroke:#000000;stroke-width:0.94488192;stroke-miterlimit:4;stroke-dasharray:none;stroke-opacity:1"
       d="m 377.28763,138.41205 c 0.72187,-0.0505 1.90312,-0.0505 2.625,0 0.72187,0.0505 0.13125,0.0918 -1.3125,0.0918 -1.44375,0 -2.03438,-0.0413 -1.3125,-0.0918 z"
       id="path4608"
       inkscape:connector-curvature="0"
       transform="scale(0.26458333)" />
    <path
       style="fill:#000000;fill-opacity:0;stroke:#000000;stroke-width:0.94488192;stroke-miterlimit:4;stroke-dasharray:none;stroke-opacity:1"
       d="m 376.10013,137.77136 v -0.675 h 2.5 2.5 v 0.675 c 0,0.525 -0.0667,0.60833 -0.3,0.375 -0.40082,-0.40082 -3.99919,-0.40082 -4.4,0 -0.23334,0.23333 -0.3,0.15 -0.3,-0.375 z"
       id="path4610"
       inkscape:connector-curvature="0"
       transform="scale(0.26458333)" />
    <path
       style="fill:#000000;fill-opacity:0;stroke:#000000;stroke-width:0.94488192;stroke-miterlimit:4;stroke-dasharray:none;stroke-opacity:1"
       d="m 375.10013,130.09636 v -2.25 h 3.5 3.5 v 2.25 2.25 h -3.5 -3.5 z"
       id="path4612"
       inkscape:connector-curvature="0"
       transform="scale(0.26458333)" />
    <path
       style="fill:#000000;fill-opacity:0;stroke:#000000;stroke-width:0.94488192;stroke-miterlimit:4;stroke-dasharray:none;stroke-opacity:1"
       d="m 375.60013,130.09636 v -1.75 h 3 3 v 1.75 1.75 h -3 -3 z"
       id="path4614"
       inkscape:connector-curvature="0"
       transform="scale(0.26458333)" />
    <path
       style="fill:#000000;fill-opacity:0;stroke:#000000;stroke-width:0.94488192;stroke-miterlimit:4;stroke-dasharray:none;stroke-opacity:1"
       d="m 376.10013,130.09636 v -1.25 h 2.5 2.5 v 1.25 1.25 h -2.5 -2.5 z"
       id="path4616"
       inkscape:connector-curvature="0"
       transform="scale(0.26458333)" />
    <path
       style="fill:#000000;fill-opacity:0;stroke:#000000;stroke-width:0.94488192;stroke-miterlimit:4;stroke-dasharray:none;stroke-opacity:1"
       d="m 376.60013,130.09636 v -0.75 h 2 2 v 0.75 0.75 h -2 -2 z"
       id="path4618"
       inkscape:connector-curvature="0"
       transform="scale(0.26458333)" />
    <path
       style="fill:#000000;fill-opacity:0;stroke:#000000;stroke-width:0.94488192;stroke-miterlimit:4;stroke-dasharray:none;stroke-opacity:1"
       d="m 377.10013,130.09636 c 0,-0.13889 0.66666,-0.25 1.5,-0.25 0.83333,0 1.5,0.11111 1.5,0.25 0,0.13889 -0.66667,0.25 -1.5,0.25 -0.83334,0 -1.5,-0.11111 -1.5,-0.25 z"
       id="path4620"
       inkscape:connector-curvature="0"
       transform="scale(0.26458333)" />
    <path
       style="fill:#000000;fill-opacity:0;stroke:#000000;stroke-width:0.94488192;stroke-miterlimit:4;stroke-dasharray:none;stroke-opacity:1"
       d="m 375.10013,148.47136 v -5.375 h 3.5 3.5 v 5.375 5.375 h -3.5 -3.5 z"
       id="path4622"
       inkscape:connector-curvature="0"
       transform="scale(0.26458333)" />
    <path
       style="fill:#000000;fill-opacity:0;stroke:#000000;stroke-width:0.94488192;stroke-miterlimit:4;stroke-dasharray:none;stroke-opacity:1"
       d="m 375.60013,148.47136 v -4.875 h 3 3 v 4.875 4.875 h -3 -3 z"
       id="path4624"
       inkscape:connector-curvature="0"
       transform="scale(0.26458333)" />
    <path
       style="fill:#000000;fill-opacity:0;stroke:#000000;stroke-width:0.94488192;stroke-miterlimit:4;stroke-dasharray:none;stroke-opacity:1"
       d="m 376.10013,148.47136 v -4.375 h 2.5 2.5 v 4.375 4.375 h -2.5 -2.5 z"
       id="path4626"
       inkscape:connector-curvature="0"
       transform="scale(0.26458333)" />
    <path
       style="fill:#000000;fill-opacity:0;stroke:#000000;stroke-width:0.94488192;stroke-miterlimit:4;stroke-dasharray:none;stroke-opacity:1"
       d="m 376.60013,148.47136 v -3.875 h 2 2 v 3.875 3.875 h -2 -2 z"
       id="path4628"
       inkscape:connector-curvature="0"
       transform="scale(0.26458333)" />
    <path
       style="fill:#000000;fill-opacity:0;stroke:#000000;stroke-width:0.94488192;stroke-miterlimit:4;stroke-dasharray:none;stroke-opacity:1"
       d="m 377.10013,148.47136 v -3.375 h 1.5 1.5 v 3.375 3.375 h -1.5 -1.5 z"
       id="path4630"
       inkscape:connector-curvature="0"
       transform="scale(0.26458333)" />
    <path
       style="fill:#000000;fill-opacity:0;stroke:#000000;stroke-width:0.94488192;stroke-miterlimit:4;stroke-dasharray:none;stroke-opacity:1"
       d="m 377.60013,148.47136 v -2.875 h 1 1 v 2.875 2.875 h -1 -1 z"
       id="path4632"
       inkscape:connector-curvature="0"
       transform="scale(0.26458333)" />
    <path
       style="fill:#000000;fill-opacity:0;stroke:#000000;stroke-width:0.94488192;stroke-miterlimit:4;stroke-dasharray:none;stroke-opacity:1"
       d="m 378.10013,148.47136 c 0,-2.20834 0.0351,-2.375 0.5,-2.375 0.46491,0 0.5,0.16666 0.5,2.375 0,2.20833 -0.0351,2.375 -0.5,2.375 -0.46491,0 -0.5,-0.16667 -0.5,-2.375 z"
       id="path4634"
       inkscape:connector-curvature="0"
       transform="scale(0.26458333)" />
    <rect
       style="fill:#000000;fill-opacity:0;stroke:#000000;stroke-width:1.02906907;stroke-miterlimit:4;stroke-dasharray:none;stroke-opacity:1"
       id="rect4636"
       width="2.2332041"
       height="10.258723"
       x="156.26929"
       y="31.284832" />
    <rect
       style="fill:#000000;fill-opacity:0;stroke:#000000;stroke-width:1;stroke-miterlimit:4;stroke-dasharray:none;stroke-opacity:1"
       id="rect4638"
       width="0.050247867"
       height="4.6228042"
       x="157.34505"
       y="26.662027" />
    <ellipse
       style="fill:#000000;fill-opacity:0;stroke:#000000;stroke-width:0.96768999;stroke-miterlimit:4;stroke-dasharray:none;stroke-opacity:1"
       id="path4640"
       cx="137.52705"
       cy="26.161203"
       rx="19.313606"
       ry="1.3661551" />
    <ellipse
       style="fill:#000000;fill-opacity:0;stroke:#000000;stroke-width:0.96769005;stroke-miterlimit:4;stroke-dasharray:none;stroke-opacity:1"
       id="path4640-6"
       cx="177.18251"
       cy="26.161203"
       rx="19.31361"
       ry="1.3661551" />
    <rect
       style="fill:#000000;fill-opacity:0;stroke:#000000;stroke-width:0.55826688;stroke-miterlimit:4;stroke-dasharray:none;stroke-opacity:1"
       id="rect4687"
       width="0.32120806"
       height="40.204601"
       x="99.709999"
       y="41.389126" />
    <rect
       style="fill:#000000;fill-opacity:0;stroke:#000000;stroke-width:0.5;stroke-miterlimit:4;stroke-dasharray:none;stroke-opacity:1"
       id="rect4689"
       width="3.0806258"
       height="10.618773"
       x="98.254791"
       y="81.064568" />
    <ellipse
       style="fill:#000000;fill-opacity:0;stroke:#000000;stroke-width:0.60604525;stroke-miterlimit:4;stroke-dasharray:none;stroke-opacity:1"
       id="path4691"
       cx="40.832813"
       cy="36.497917"
       rx="4.6969776"
       ry="4.6969771" />
    <ellipse
       style="fill:#000000;fill-opacity:0;stroke:#000000;stroke-width:0.90986264;stroke-miterlimit:4;stroke-dasharray:none;stroke-opacity:1"
       id="path4640-8"
       cx="47.701237"
       cy="40.676899"
       rx="10.904619"
       ry="2.1391051"
       transform="matrix(0,1,1,0,0,0)" />
    <ellipse
       style="fill:#000000;fill-opacity:0;stroke:#000000;stroke-width:0.9098627;stroke-miterlimit:4;stroke-dasharray:none;stroke-opacity:1"
       id="path4640-6-3"
       cx="25.299252"
       cy="40.650101"
       rx="10.904619"
       ry="2.1391051"
       transform="matrix(0,1,1,0,0,0)" />
  </g>
</svg>
